<svg xmlns="http://www.w3.org/2000/svg" xmlns:xlink="http://www.w3.org/1999/xlink" width="600" height="400" viewBox="0 0 2400 1600">
<defs>
  <clipPath id="clip410">
    <rect x="0" y="0" width="2400" height="1600"></rect>
  </clipPath>
</defs>
<path clip-path="url(#clip410)" d="M0 1600 L2400 1600 L2400 0 L0 0  Z" fill="#ffffff" fill-rule="evenodd" fill-opacity="1"></path>
<defs>
  <clipPath id="clip411">
    <rect x="480" y="0" width="1681" height="1600"></rect>
  </clipPath>
</defs>
<path clip-path="url(#clip410)" d="M147.342 1486.45 L1161.17 1486.45 L1161.17 47.2441 L147.342 47.2441  Z" fill="#ffffff" fill-rule="evenodd" fill-opacity="1"></path>
<defs>
  <clipPath id="clip412">
    <rect x="147" y="47" width="1015" height="1440"></rect>
  </clipPath>
</defs>
<polyline clip-path="url(#clip410)" style="stroke:#000000; stroke-linecap:round; stroke-linejoin:round; stroke-width:4; stroke-opacity:1; fill:none" points="147.342,1486.45 1161.17,1486.45 "></polyline>
<polyline clip-path="url(#clip410)" style="stroke:#000000; stroke-linecap:round; stroke-linejoin:round; stroke-width:4; stroke-opacity:1; fill:none" points="147.342,47.2441 1161.17,47.2441 "></polyline>
<polyline clip-path="url(#clip410)" style="stroke:#000000; stroke-linecap:round; stroke-linejoin:round; stroke-width:4; stroke-opacity:1; fill:none" points="176.036,1486.45 176.036,1467.55 "></polyline>
<polyline clip-path="url(#clip410)" style="stroke:#000000; stroke-linecap:round; stroke-linejoin:round; stroke-width:4; stroke-opacity:1; fill:none" points="371.227,1486.45 371.227,1467.55 "></polyline>
<polyline clip-path="url(#clip410)" style="stroke:#000000; stroke-linecap:round; stroke-linejoin:round; stroke-width:4; stroke-opacity:1; fill:none" points="566.419,1486.45 566.419,1467.55 "></polyline>
<polyline clip-path="url(#clip410)" style="stroke:#000000; stroke-linecap:round; stroke-linejoin:round; stroke-width:4; stroke-opacity:1; fill:none" points="761.61,1486.45 761.61,1467.55 "></polyline>
<polyline clip-path="url(#clip410)" style="stroke:#000000; stroke-linecap:round; stroke-linejoin:round; stroke-width:4; stroke-opacity:1; fill:none" points="956.802,1486.45 956.802,1467.55 "></polyline>
<polyline clip-path="url(#clip410)" style="stroke:#000000; stroke-linecap:round; stroke-linejoin:round; stroke-width:4; stroke-opacity:1; fill:none" points="1151.99,1486.45 1151.99,1467.55 "></polyline>
<path clip-path="url(#clip410)" d="M165.388 1532.67 Q165.388 1525.23 167.266 1521.18 Q169.884 1515.15 176.06 1515.15 Q177.37 1515.15 178.728 1515.52 Q180.112 1515.87 181.841 1517.23 Q183.595 1518.59 184.657 1520.81 Q186.683 1525.11 186.683 1532.67 Q186.683 1540.05 184.805 1544.08 Q182.063 1549.96 176.011 1549.96 Q173.738 1549.96 171.416 1548.8 Q169.119 1547.64 167.661 1544.85 Q165.388 1540.67 165.388 1532.67 M169.588 1532.05 Q169.588 1539.68 170.131 1542.72 Q170.749 1546.01 172.429 1547.44 Q174.133 1548.85 176.011 1548.85 Q178.037 1548.85 179.716 1547.34 Q181.421 1545.81 181.94 1542.52 Q182.508 1539.29 182.483 1532.05 Q182.483 1525.01 181.989 1522.19 Q181.322 1518.91 179.543 1517.6 Q177.79 1516.26 176.011 1516.26 Q175.344 1516.26 174.628 1516.46 Q173.936 1516.66 172.923 1517.23 Q171.91 1517.8 171.12 1519.2 Q170.354 1520.61 169.983 1522.74 Q169.588 1525.48 169.588 1532.05 Z" fill="#000000" fill-rule="nonzero" fill-opacity="1"></path><path clip-path="url(#clip410)" d="M362.877 1519.97 L362.877 1518.39 Q368.954 1518.39 372.092 1515.15 Q372.956 1515.15 373.105 1515.35 Q373.253 1515.55 373.253 1516.46 L373.253 1544.85 Q373.253 1546.35 373.994 1546.82 Q374.735 1547.29 377.971 1547.29 L379.577 1547.29 L379.577 1548.85 Q377.798 1548.7 371.375 1548.7 Q364.953 1548.7 363.199 1548.85 L363.199 1547.29 L364.804 1547.29 Q367.991 1547.29 368.757 1546.85 Q369.523 1546.38 369.523 1544.85 L369.523 1518.64 Q366.879 1519.97 362.877 1519.97 Z" fill="#000000" fill-rule="nonzero" fill-opacity="1"></path><path clip-path="url(#clip410)" d="M556.315 1548.85 Q556.315 1547.93 556.389 1547.66 Q556.488 1547.39 556.883 1546.97 L566.592 1536.15 Q571.903 1530.17 571.903 1524.96 Q571.903 1521.58 570.124 1519.15 Q568.37 1516.73 565.134 1516.73 Q562.911 1516.73 561.033 1518.09 Q559.156 1519.45 558.291 1521.87 Q558.44 1521.82 558.958 1521.82 Q560.218 1521.82 560.91 1522.61 Q561.626 1523.4 561.626 1524.47 Q561.626 1525.82 560.737 1526.49 Q559.872 1527.13 559.008 1527.13 Q558.662 1527.13 558.192 1527.06 Q557.748 1526.99 557.031 1526.29 Q556.315 1525.58 556.315 1524.32 Q556.315 1520.78 558.983 1517.97 Q561.676 1515.15 565.776 1515.15 Q570.421 1515.15 573.459 1517.92 Q576.522 1520.66 576.522 1524.96 Q576.522 1526.47 576.053 1527.85 Q575.608 1529.21 574.991 1530.27 Q574.398 1531.33 572.767 1533.04 Q571.137 1534.74 569.828 1535.95 Q568.518 1537.16 565.579 1539.73 L560.218 1544.94 L569.334 1544.94 Q573.78 1544.94 574.126 1544.55 Q574.62 1543.83 575.238 1540.05 L576.522 1540.05 L575.09 1548.85 L556.315 1548.85 Z" fill="#000000" fill-rule="nonzero" fill-opacity="1"></path><path clip-path="url(#clip410)" d="M751.111 1542.03 Q751.111 1540.52 751.976 1539.81 Q752.841 1539.09 753.952 1539.09 Q755.113 1539.09 755.929 1539.86 Q756.768 1540.6 756.768 1541.91 Q756.768 1543.31 755.78 1544.1 Q754.817 1544.9 753.433 1544.7 Q754.644 1546.72 756.867 1547.64 Q759.115 1548.55 761.19 1548.55 Q763.364 1548.55 765.118 1546.67 Q766.897 1544.8 766.897 1540.2 Q766.897 1536.3 765.365 1534.05 Q763.858 1531.8 760.869 1531.8 L758.646 1531.8 Q757.88 1531.8 757.658 1531.73 Q757.435 1531.65 757.435 1531.23 Q757.435 1530.74 758.201 1530.64 Q758.967 1530.64 760.177 1530.49 Q763.117 1530.39 764.673 1527.85 Q766.082 1525.48 766.082 1522.09 Q766.082 1519.01 764.599 1517.72 Q763.142 1516.41 761.24 1516.41 Q759.461 1516.41 757.51 1517.15 Q755.558 1517.89 754.496 1519.55 Q757.633 1519.55 757.633 1522.09 Q757.633 1523.21 756.917 1523.95 Q756.225 1524.66 755.064 1524.66 Q753.952 1524.66 753.211 1523.97 Q752.47 1523.26 752.47 1522.04 Q752.47 1519.15 755.039 1517.15 Q757.633 1515.15 761.437 1515.15 Q765.192 1515.15 767.959 1517.13 Q770.751 1519.11 770.751 1522.14 Q770.751 1525.13 768.774 1527.58 Q766.798 1530.02 763.661 1531.04 Q767.514 1531.8 769.812 1534.42 Q772.109 1537.01 772.109 1540.2 Q772.109 1544.15 768.997 1547.07 Q765.884 1549.96 761.339 1549.96 Q757.139 1549.96 754.125 1547.69 Q751.111 1545.41 751.111 1542.03 Z" fill="#000000" fill-rule="nonzero" fill-opacity="1"></path><path clip-path="url(#clip410)" d="M945.587 1540.5 L945.587 1538.94 L961.125 1515.2 Q961.52 1514.58 962.138 1514.61 Q962.706 1514.61 962.829 1514.83 Q962.953 1515.05 962.953 1515.92 L962.953 1538.94 L968.017 1538.94 L968.017 1540.5 L962.953 1540.5 L962.953 1544.9 Q962.953 1546.35 963.546 1546.82 Q964.163 1547.29 966.782 1547.29 L967.844 1547.29 L967.844 1548.85 Q965.769 1548.7 960.977 1548.7 Q956.209 1548.7 954.134 1548.85 L954.134 1547.29 L955.196 1547.29 Q957.815 1547.29 958.432 1546.85 Q959.05 1546.38 959.05 1544.9 L959.05 1540.5 L945.587 1540.5 M947.019 1538.94 L959.346 1538.94 L959.346 1520.07 L947.019 1538.94 Z" fill="#000000" fill-rule="nonzero" fill-opacity="1"></path><path clip-path="url(#clip410)" d="M1141.89 1540.7 Q1141.89 1539.19 1142.7 1538.62 Q1143.52 1538.03 1144.38 1538.03 Q1145.55 1538.03 1146.21 1538.77 Q1146.9 1539.49 1146.9 1540.5 Q1146.9 1541.51 1146.21 1542.25 Q1145.55 1542.97 1144.38 1542.97 Q1143.82 1542.97 1143.52 1542.87 Q1144.19 1545.19 1146.21 1546.87 Q1148.26 1548.55 1150.96 1548.55 Q1154.34 1548.55 1156.37 1545.27 Q1157.58 1543.14 1157.58 1538.32 Q1157.58 1534.08 1156.66 1531.95 Q1155.25 1528.71 1152.36 1528.71 Q1148.26 1528.71 1145.84 1532.25 Q1145.55 1532.69 1145.2 1532.72 Q1144.71 1532.72 1144.58 1532.44 Q1144.48 1532.15 1144.48 1531.38 L1144.48 1516.41 Q1144.48 1515.2 1144.98 1515.2 Q1145.18 1515.2 1145.6 1515.35 Q1148.78 1516.76 1152.31 1516.78 Q1155.95 1516.78 1159.21 1515.3 Q1159.45 1515.15 1159.6 1515.15 Q1160.1 1515.15 1160.12 1515.72 Q1160.12 1515.92 1159.7 1516.51 Q1159.31 1517.08 1158.44 1517.85 Q1157.58 1518.59 1156.46 1519.3 Q1155.35 1520.02 1153.72 1520.51 Q1152.12 1520.98 1150.34 1520.98 Q1148.21 1520.98 1146.04 1520.32 L1146.04 1530.17 Q1148.66 1527.6 1152.46 1527.6 Q1156.51 1527.6 1159.31 1530.86 Q1162.1 1534.12 1162.1 1538.67 Q1162.1 1543.44 1158.79 1546.7 Q1155.5 1549.96 1151.05 1549.96 Q1147 1549.96 1144.43 1547.07 Q1141.89 1544.18 1141.89 1540.7 Z" fill="#000000" fill-rule="nonzero" fill-opacity="1"></path><polyline clip-path="url(#clip410)" style="stroke:#000000; stroke-linecap:round; stroke-linejoin:round; stroke-width:4; stroke-opacity:1; fill:none" points="147.342,1486.45 147.342,47.2441 "></polyline>
<polyline clip-path="url(#clip410)" style="stroke:#000000; stroke-linecap:round; stroke-linejoin:round; stroke-width:4; stroke-opacity:1; fill:none" points="1161.17,1486.45 1161.17,47.2441 "></polyline>
<polyline clip-path="url(#clip410)" style="stroke:#000000; stroke-linecap:round; stroke-linejoin:round; stroke-width:4; stroke-opacity:1; fill:none" points="147.342,1470.98 166.24,1470.98 "></polyline>
<polyline clip-path="url(#clip410)" style="stroke:#000000; stroke-linecap:round; stroke-linejoin:round; stroke-width:4; stroke-opacity:1; fill:none" points="147.342,1251.06 166.24,1251.06 "></polyline>
<polyline clip-path="url(#clip410)" style="stroke:#000000; stroke-linecap:round; stroke-linejoin:round; stroke-width:4; stroke-opacity:1; fill:none" points="147.342,1031.14 166.24,1031.14 "></polyline>
<polyline clip-path="url(#clip410)" style="stroke:#000000; stroke-linecap:round; stroke-linejoin:round; stroke-width:4; stroke-opacity:1; fill:none" points="147.342,811.216 166.24,811.216 "></polyline>
<polyline clip-path="url(#clip410)" style="stroke:#000000; stroke-linecap:round; stroke-linejoin:round; stroke-width:4; stroke-opacity:1; fill:none" points="147.342,591.293 166.24,591.293 "></polyline>
<polyline clip-path="url(#clip410)" style="stroke:#000000; stroke-linecap:round; stroke-linejoin:round; stroke-width:4; stroke-opacity:1; fill:none" points="147.342,371.37 166.24,371.37 "></polyline>
<polyline clip-path="url(#clip410)" style="stroke:#000000; stroke-linecap:round; stroke-linejoin:round; stroke-width:4; stroke-opacity:1; fill:none" points="147.342,151.447 166.24,151.447 "></polyline>
<path clip-path="url(#clip410)" d="M85.5027 1474.9 Q85.7992 1475.2 85.7992 1475.62 Q85.7992 1476.04 85.5027 1476.33 Q85.2063 1476.63 84.7863 1476.63 L53.1166 1476.63 Q52.6967 1476.63 52.4002 1476.33 Q52.1038 1476.04 52.1038 1475.62 Q52.1038 1475.2 52.4002 1474.9 Q52.6967 1474.6 53.1166 1474.6 L84.7863 1474.6 Q85.2063 1474.6 85.5027 1474.9 Z" fill="#000000" fill-rule="nonzero" fill-opacity="1"></path><path clip-path="url(#clip410)" d="M91.1351 1480.11 Q91.1351 1478.61 91.9503 1478.04 Q92.7655 1477.44 93.6301 1477.44 Q94.7912 1477.44 95.4582 1478.19 Q96.1499 1478.9 96.1499 1479.91 Q96.1499 1480.93 95.4582 1481.67 Q94.7912 1482.38 93.6301 1482.38 Q93.0619 1482.38 92.7655 1482.29 Q93.4325 1484.61 95.4582 1486.29 Q97.5086 1487.97 100.201 1487.97 Q103.586 1487.97 105.611 1484.68 Q106.822 1482.56 106.822 1477.74 Q106.822 1473.49 105.908 1471.37 Q104.5 1468.13 101.609 1468.13 Q97.5086 1468.13 95.0876 1471.66 Q94.7912 1472.11 94.4453 1472.13 Q93.9513 1472.13 93.8278 1471.86 Q93.7289 1471.56 93.7289 1470.8 L93.7289 1455.83 Q93.7289 1454.62 94.223 1454.62 Q94.4206 1454.62 94.8406 1454.77 Q98.0273 1456.17 101.56 1456.2 Q105.191 1456.2 108.452 1454.72 Q108.699 1454.57 108.847 1454.57 Q109.341 1454.57 109.366 1455.14 Q109.366 1455.33 108.946 1455.93 Q108.551 1456.5 107.686 1457.26 Q106.822 1458 105.71 1458.72 Q104.598 1459.44 102.968 1459.93 Q101.362 1460.4 99.5836 1460.4 Q97.4591 1460.4 95.2852 1459.73 L95.2852 1469.59 Q97.9038 1467.02 101.708 1467.02 Q105.759 1467.02 108.551 1470.28 Q111.342 1473.54 111.342 1478.09 Q111.342 1482.85 108.032 1486.11 Q104.747 1489.38 100.3 1489.38 Q96.2487 1489.38 93.6795 1486.49 Q91.1351 1483.6 91.1351 1480.11 Z" fill="#000000" fill-rule="nonzero" fill-opacity="1"></path><path clip-path="url(#clip410)" d="M84.3911 1254.98 Q84.6875 1255.27 84.6875 1255.69 Q84.6875 1256.11 84.3911 1256.41 Q84.0946 1256.71 83.6747 1256.71 L52.005 1256.71 Q51.585 1256.71 51.2886 1256.41 Q50.9921 1256.11 50.9921 1255.69 Q50.9921 1255.27 51.2886 1254.98 Q51.585 1254.68 52.005 1254.68 L83.6747 1254.68 Q84.0946 1254.68 84.3911 1254.98 Z" fill="#000000" fill-rule="nonzero" fill-opacity="1"></path><path clip-path="url(#clip410)" d="M88.9118 1259.99 L88.9118 1258.44 L104.45 1234.7 Q104.845 1234.08 105.463 1234.1 Q106.031 1234.1 106.155 1234.32 Q106.278 1234.55 106.278 1235.41 L106.278 1258.44 L111.342 1258.44 L111.342 1259.99 L106.278 1259.99 L106.278 1264.39 Q106.278 1265.85 106.871 1266.32 Q107.489 1266.78 110.107 1266.78 L111.17 1266.78 L111.17 1268.34 Q109.094 1268.19 104.302 1268.19 Q99.5342 1268.19 97.4591 1268.34 L97.4591 1266.78 L98.5214 1266.78 Q101.14 1266.78 101.758 1266.34 Q102.375 1265.87 102.375 1264.39 L102.375 1259.99 L88.9118 1259.99 M90.3446 1258.44 L102.672 1258.44 L102.672 1239.56 L90.3446 1258.44 Z" fill="#000000" fill-rule="nonzero" fill-opacity="1"></path><path clip-path="url(#clip410)" d="M85.1075 1035.05 Q85.4039 1035.35 85.4039 1035.77 Q85.4039 1036.19 85.1075 1036.49 Q84.811 1036.78 84.3911 1036.78 L52.7214 1036.78 Q52.3014 1036.78 52.005 1036.49 Q51.7085 1036.19 51.7085 1035.77 Q51.7085 1035.35 52.005 1035.05 Q52.3014 1034.76 52.7214 1034.76 L84.3911 1034.76 Q84.811 1034.76 85.1075 1035.05 Z" fill="#000000" fill-rule="nonzero" fill-opacity="1"></path><path clip-path="url(#clip410)" d="M90.3446 1041.6 Q90.3446 1040.09 91.2092 1039.38 Q92.0738 1038.66 93.1855 1038.66 Q94.3465 1038.66 95.1617 1039.43 Q96.0016 1040.17 96.0016 1041.48 Q96.0016 1042.88 95.0135 1043.68 Q94.0501 1044.47 92.6667 1044.27 Q93.8772 1046.29 96.1005 1047.21 Q98.3485 1048.12 100.424 1048.12 Q102.597 1048.12 104.351 1046.24 Q106.13 1044.37 106.13 1039.77 Q106.13 1035.87 104.598 1033.62 Q103.092 1031.37 100.102 1031.37 L97.8791 1031.37 Q97.1133 1031.37 96.891 1031.3 Q96.6686 1031.22 96.6686 1030.8 Q96.6686 1030.31 97.4344 1030.21 Q98.2002 1030.21 99.4107 1030.06 Q102.35 1029.97 103.907 1027.42 Q105.315 1025.05 105.315 1021.66 Q105.315 1018.58 103.833 1017.29 Q102.375 1015.98 100.473 1015.98 Q98.6943 1015.98 96.7427 1016.72 Q94.7912 1017.47 93.7289 1019.12 Q96.8663 1019.12 96.8663 1021.66 Q96.8663 1022.78 96.1499 1023.52 Q95.4582 1024.23 94.2971 1024.23 Q93.1855 1024.23 92.4444 1023.54 Q91.7033 1022.83 91.7033 1021.62 Q91.7033 1018.73 94.2724 1016.72 Q96.8663 1014.72 100.671 1014.72 Q104.425 1014.72 107.192 1016.7 Q109.984 1018.68 109.984 1021.71 Q109.984 1024.7 108.007 1027.15 Q106.031 1029.59 102.894 1030.61 Q106.748 1031.37 109.045 1033.99 Q111.342 1036.59 111.342 1039.77 Q111.342 1043.72 108.23 1046.64 Q105.117 1049.53 100.572 1049.53 Q96.3722 1049.53 93.3584 1047.26 Q90.3446 1044.98 90.3446 1041.6 Z" fill="#000000" fill-rule="nonzero" fill-opacity="1"></path><path clip-path="url(#clip410)" d="M85.5027 815.131 Q85.7992 815.428 85.7992 815.848 Q85.7992 816.268 85.5027 816.564 Q85.2063 816.86 84.7863 816.86 L53.1166 816.86 Q52.6967 816.86 52.4002 816.564 Q52.1038 816.268 52.1038 815.848 Q52.1038 815.428 52.4002 815.131 Q52.6967 814.835 53.1166 814.835 L84.7863 814.835 Q85.2063 814.835 85.5027 815.131 Z" fill="#000000" fill-rule="nonzero" fill-opacity="1"></path><path clip-path="url(#clip410)" d="M91.1351 828.496 Q91.1351 827.582 91.2092 827.31 Q91.308 827.038 91.7033 826.618 L101.412 815.798 Q106.723 809.82 106.723 804.608 Q106.723 801.223 104.944 798.802 Q103.19 796.381 99.9542 796.381 Q97.7309 796.381 95.8534 797.74 Q93.976 799.099 93.1114 801.52 Q93.2596 801.47 93.7783 801.47 Q95.0382 801.47 95.7299 802.261 Q96.4463 803.051 96.4463 804.113 Q96.4463 805.472 95.557 806.139 Q94.6924 806.781 93.8278 806.781 Q93.4819 806.781 93.0125 806.707 Q92.5679 806.633 91.8515 805.942 Q91.1351 805.225 91.1351 803.965 Q91.1351 800.433 93.803 797.616 Q96.4957 794.8 100.596 794.8 Q105.241 794.8 108.279 797.567 Q111.342 800.309 111.342 804.608 Q111.342 806.114 110.873 807.498 Q110.428 808.857 109.811 809.919 Q109.218 810.981 107.588 812.686 Q105.957 814.39 104.648 815.601 Q103.339 816.811 100.399 819.38 L95.0382 824.593 L104.154 824.593 Q108.6 824.593 108.946 824.197 Q109.44 823.481 110.058 819.701 L111.342 819.701 L109.91 828.496 L91.1351 828.496 Z" fill="#000000" fill-rule="nonzero" fill-opacity="1"></path><path clip-path="url(#clip410)" d="M87.0343 595.208 Q87.3308 595.505 87.3308 595.925 Q87.3308 596.345 87.0343 596.641 Q86.7379 596.938 86.3179 596.938 L54.6482 596.938 Q54.2283 596.938 53.9318 596.641 Q53.6354 596.345 53.6354 595.925 Q53.6354 595.505 53.9318 595.208 Q54.2283 594.912 54.6482 594.912 L86.3179 594.912 Q86.7379 594.912 87.0343 595.208 Z" fill="#000000" fill-rule="nonzero" fill-opacity="1"></path><path clip-path="url(#clip410)" d="M94.643 579.695 L94.643 578.114 Q100.72 578.114 103.857 574.878 Q104.722 574.878 104.87 575.075 Q105.018 575.273 105.018 576.187 L105.018 604.571 Q105.018 606.078 105.759 606.547 Q106.501 607.017 109.737 607.017 L111.342 607.017 L111.342 608.573 Q109.564 608.425 103.141 608.425 Q96.718 608.425 94.9641 608.573 L94.9641 607.017 L96.5698 607.017 Q99.7566 607.017 100.522 606.572 Q101.288 606.103 101.288 604.571 L101.288 578.361 Q98.6449 579.695 94.643 579.695 Z" fill="#000000" fill-rule="nonzero" fill-opacity="1"></path><path clip-path="url(#clip410)" d="M90.0481 372.469 Q90.0481 365.034 91.9256 360.982 Q94.5441 354.955 100.72 354.955 Q102.029 354.955 103.388 355.325 Q104.771 355.671 106.501 357.03 Q108.255 358.388 109.317 360.612 Q111.342 364.91 111.342 372.469 Q111.342 379.856 109.465 383.882 Q106.723 389.762 100.671 389.762 Q98.3979 389.762 96.0758 388.601 Q93.7783 387.44 92.3208 384.648 Q90.0481 380.473 90.0481 372.469 M94.2477 371.852 Q94.2477 379.485 94.7912 382.524 Q95.4088 385.809 97.0886 387.242 Q98.7931 388.65 100.671 388.65 Q102.696 388.65 104.376 387.143 Q106.081 385.612 106.599 382.326 Q107.168 379.09 107.143 371.852 Q107.143 364.811 106.649 361.995 Q105.982 358.71 104.203 357.4 Q102.449 356.066 100.671 356.066 Q100.004 356.066 99.2872 356.264 Q98.5955 356.462 97.5827 357.03 Q96.5698 357.598 95.7793 359.006 Q95.0135 360.414 94.643 362.539 Q94.2477 365.281 94.2477 371.852 Z" fill="#000000" fill-rule="nonzero" fill-opacity="1"></path><path clip-path="url(#clip410)" d="M94.643 139.849 L94.643 138.268 Q100.72 138.268 103.857 135.032 Q104.722 135.032 104.87 135.23 Q105.018 135.427 105.018 136.341 L105.018 164.725 Q105.018 166.232 105.759 166.702 Q106.501 167.171 109.737 167.171 L111.342 167.171 L111.342 168.727 Q109.564 168.579 103.141 168.579 Q96.718 168.579 94.9641 168.727 L94.9641 167.171 L96.5698 167.171 Q99.7566 167.171 100.522 166.726 Q101.288 166.257 101.288 164.725 L101.288 138.515 Q98.6449 139.849 94.643 139.849 Z" fill="#000000" fill-rule="nonzero" fill-opacity="1"></path><polyline clip-path="url(#clip412)" style="stroke:#009af9; stroke-linecap:round; stroke-linejoin:round; stroke-width:8; stroke-opacity:1; fill:none" points="176.036,371.37 195.555,371.714 215.074,376.341 234.593,390.835 254.112,417.637 273.631,456.672 293.151,506.316 312.67,564.136 332.189,627.422 351.708,693.548 371.227,760.19 390.746,825.443 410.265,887.854 429.785,946.407 449.304,1000.48 468.823,1049.77 488.342,1094.25 507.861,1134.05 527.38,1169.46 546.9,1200.84 566.419,1228.58 585.938,1253.09 605.457,1274.75 624.976,1293.93 644.495,1310.96 664.014,1326.11 683.534,1339.65 703.053,1351.78 722.572,1362.67 742.091,1372.48 761.61,1381.33 781.129,1389.32 800.649,1396.54 820.168,1403.06 839.687,1408.94 859.206,1414.24 878.725,1418.99 898.244,1423.26 917.764,1427.06 937.283,1430.43 956.802,1433.41 976.321,1436.02 995.84,1438.27 1015.36,1440.2 1034.88,1441.82 1054.4,1443.15 1073.92,1444.19 1093.44,1444.96 1112.96,1445.47 1132.47,1445.72 "></polyline>
<polyline clip-path="url(#clip412)" style="stroke:#e26f46; stroke-linecap:round; stroke-linejoin:round; stroke-width:8; stroke-opacity:1; fill:none" points="176.036,371.37 195.555,371.713 215.074,376.332 234.593,390.807 254.112,417.585 273.631,456.596 293.151,506.219 312.67,564.022 332.189,627.298 351.708,693.418 371.227,760.06 390.746,825.316 410.265,887.732 429.785,946.293 449.304,1000.37 468.823,1049.68 488.342,1094.16 507.861,1133.97 527.38,1169.39 546.9,1200.78 566.419,1228.52 585.938,1253.04 605.457,1274.71 624.976,1293.89 644.495,1310.92 664.014,1326.08 683.534,1339.63 703.053,1351.76 722.572,1362.65 742.091,1372.46 761.61,1381.31 781.129,1389.31 800.649,1396.53 820.168,1403.05 839.687,1408.93 859.206,1414.22 878.725,1418.98 898.244,1423.24 917.764,1427.05 937.283,1430.42 956.802,1433.4 976.321,1436.01 995.84,1438.26 1015.36,1440.19 1034.88,1441.81 1054.4,1443.14 1073.92,1444.19 1093.44,1444.96 1112.96,1445.47 1132.47,1445.72 "></polyline>
<polyline clip-path="url(#clip412)" style="stroke:#3da44d; stroke-linecap:round; stroke-linejoin:round; stroke-width:8; stroke-opacity:1; fill:none" points="176.036,371.37 195.555,357.195 215.074,330.972 234.593,309.272 254.112,291.363 273.631,275.703 293.151,261.64 312.67,248.943 332.189,237.491 351.708,227.18 371.227,217.908 390.746,209.574 410.265,202.085 429.785,195.358 449.304,189.317 468.823,183.892 488.342,179.022 507.861,174.653 527.38,170.735 546.9,167.224 566.419,164.08 585.938,161.267 605.457,158.755 624.976,156.514 644.495,154.52 664.014,152.75 683.534,151.185 703.053,149.806 722.572,148.599 742.091,147.551 761.61,146.649 781.129,145.883 800.649,145.246 820.168,144.731 839.687,144.333 859.206,144.047 878.725,143.871 898.244,143.803 917.764,143.844 937.283,143.995 956.802,144.259 976.321,144.64 995.84,145.146 1015.36,145.783 1034.88,146.563 1054.4,147.493 1073.92,148.581 1093.44,149.948 1112.96,152.599 1132.47,160.871 "></polyline>
<polyline clip-path="url(#clip412)" style="stroke:#c271d2; stroke-linecap:round; stroke-linejoin:round; stroke-width:8; stroke-opacity:1; fill:none" points="176.036,371.37 195.555,385.113 215.074,460.261 234.593,576.258 254.112,702.266 273.631,818.362 293.151,913.127 312.67,981.445 332.189,1022.61 351.708,1038.76 371.227,1033.65 390.746,1011.73 410.265,977.536 429.785,935.244 449.304,888.457 468.823,840.093 488.342,792.379 507.861,746.897 527.38,704.675 546.9,666.282 566.419,631.933 585.938,601.585 605.457,575.016 624.976,551.897 644.495,531.847 664.014,514.467 683.534,499.372 703.053,486.211 722.572,474.669 742.091,464.476 761.61,455.409 781.129,447.28 800.649,439.94 820.168,433.269 839.687,427.172 859.206,421.572 878.725,416.41 898.244,411.636 917.764,407.207 937.283,403.087 956.802,399.245 976.321,395.65 995.84,392.273 1015.36,389.087 1034.88,386.066 1054.4,383.183 1073.92,380.413 1093.44,377.735 1112.96,375.136 1132.47,372.618 "></polyline>
<polyline clip-path="url(#clip412)" style="stroke:#ac8d18; stroke-linecap:round; stroke-linejoin:round; stroke-width:8; stroke-opacity:1; fill:none" points="176.036,371.37 195.555,385.087 215.074,460.12 234.593,576.03 254.112,702.016 273.631,818.133 293.151,912.94 312.67,981.311 332.189,1022.53 351.708,1038.73 371.227,1033.66 390.746,1011.77 410.265,977.603 429.785,935.327 449.304,888.548 468.823,840.188 488.342,792.472 507.861,746.986 527.38,704.758 546.9,666.357 566.419,632.001 585.938,601.645 605.457,575.068 624.976,551.943 644.495,531.886 664.014,514.501 683.534,499.402 703.053,486.236 722.572,474.691 742.091,464.496 761.61,455.425 781.129,447.294 800.649,439.951 820.168,433.278 839.687,427.178 859.206,421.577 878.725,416.413 898.244,411.637 917.764,407.207 937.283,403.087 956.802,399.245 976.321,395.652 995.84,392.279 1015.36,389.099 1034.88,386.085 1054.4,383.211 1073.92,380.449 1093.44,377.771 1112.96,375.145 1132.47,372.53 "></polyline>
<polyline clip-path="url(#clip412)" style="stroke:#00a9ad; stroke-linecap:round; stroke-linejoin:round; stroke-width:8; stroke-opacity:1; fill:none" points="176.036,371.37 195.555,87.9763 215.074,130.142 234.593,178.611 254.112,205.971 273.631,223.577 293.151,237.91 312.67,250.884 332.189,262.817 351.708,273.712 371.227,283.58 390.746,292.48 410.265,300.494 429.785,307.706 449.304,314.198 468.823,320.043 488.342,325.307 507.861,330.051 527.38,334.328 546.9,338.187 566.419,341.671 585.938,344.821 605.457,347.672 624.976,350.256 644.495,352.603 664.014,354.74 683.534,356.69 703.053,358.478 722.572,360.123 742.091,361.643 761.61,363.056 781.129,364.378 800.649,365.626 820.168,366.814 839.687,367.956 859.206,369.065 878.725,370.153 898.244,371.235 917.764,372.325 937.283,373.436 956.802,374.583 976.321,375.784 995.84,377.061 1015.36,378.433 1034.88,379.903 1054.4,381.426 1073.92,383.084 1093.44,386.965 1112.96,408.887 1132.47,499.235 "></polyline>
<path clip-path="url(#clip410)" d="M181.137 1438.47 L334.964 1438.47 L334.964 1075.59 L181.137 1075.59  Z" fill="#ffffff" fill-rule="evenodd" fill-opacity="1"></path>
<polyline clip-path="url(#clip410)" style="stroke:#000000; stroke-linecap:round; stroke-linejoin:round; stroke-width:4; stroke-opacity:1; fill:none" points="181.137,1438.47 334.964,1438.47 334.964,1075.59 181.137,1075.59 181.137,1438.47 "></polyline>
<polyline clip-path="url(#clip410)" style="stroke:#009af9; stroke-linecap:round; stroke-linejoin:round; stroke-width:8; stroke-opacity:1; fill:none" points="192.401,1127.43 259.99,1127.43 "></polyline>
<path clip-path="url(#clip410)" d="M271.254 1144.71 L271.254 1143.16 Q275.207 1143.16 277.727 1140.12 Q277.727 1140.12 282.47 1134.09 L277.455 1127.57 Q275.676 1125.3 274.886 1124.9 Q274.12 1124.48 271.501 1124.48 L271.501 1122.9 Q273.576 1123.05 276.294 1123.05 Q277.801 1123.05 281.778 1122.9 L281.778 1124.48 Q279.999 1124.58 279.999 1125.74 Q279.999 1126.14 280.444 1126.66 L284.397 1131.77 L287.534 1127.82 Q288.3 1126.9 288.3 1126.04 Q288.3 1124.63 286.817 1124.48 L286.817 1122.9 Q288.794 1123.05 291.684 1123.05 Q293.858 1123.05 295.834 1122.9 L295.834 1124.48 Q291.98 1124.58 289.807 1127.1 Q288.843 1128.16 285.162 1132.83 L291.931 1141.58 Q292.746 1142.64 293.66 1142.91 Q294.574 1143.16 296.748 1143.16 L296.748 1144.71 Q294.476 1144.57 291.882 1144.57 Q290.968 1144.57 286.422 1144.71 L286.422 1143.16 Q287.336 1143.11 287.781 1142.71 Q288.25 1142.29 288.25 1141.87 Q288.25 1141.68 287.188 1140.22 L283.334 1135.15 Q279.481 1139.7 278.987 1140.76 Q278.789 1141.21 278.789 1141.58 Q278.789 1142.94 280.246 1143.16 L280.246 1144.71 Q276.615 1144.57 275.454 1144.57 Q273.231 1144.57 271.254 1144.71 Z" fill="#000000" fill-rule="nonzero" fill-opacity="1"></path><polyline clip-path="url(#clip410)" style="stroke:#e26f46; stroke-linecap:round; stroke-linejoin:round; stroke-width:8; stroke-opacity:1; fill:none" points="192.401,1179.27 259.99,1179.27 "></polyline>
<path clip-path="url(#clip410)" d="M271.254 1202.83 Q271.254 1201.77 271.872 1201.2 Q272.514 1200.66 273.379 1200.66 Q274.293 1200.66 274.886 1201.22 Q275.503 1201.82 275.503 1202.78 Q275.503 1204.66 273.527 1204.9 Q274.491 1205.82 275.899 1205.82 Q277.406 1205.82 278.616 1204.71 Q279.851 1203.59 280.37 1202.53 Q280.913 1201.47 281.679 1199.54 Q282.396 1198.04 282.939 1196.55 L275.355 1178.08 Q274.861 1176.87 274.095 1176.59 Q273.329 1176.32 271.254 1176.32 L271.254 1174.74 Q273.527 1174.89 276.17 1174.89 Q277.727 1174.89 281.679 1174.74 L281.679 1176.32 Q278.838 1176.32 278.838 1177.63 Q278.838 1177.78 279.135 1178.55 L284.767 1192.16 L289.881 1179.71 Q290.177 1178.99 290.177 1178.5 Q290.177 1176.42 287.806 1176.32 L287.806 1174.74 Q291.141 1174.89 292.203 1174.89 Q294.278 1174.89 295.982 1174.74 L295.982 1176.32 Q292.598 1176.32 291.289 1179.56 L282.371 1201.15 Q279.95 1206.91 275.899 1206.93 Q273.972 1206.93 272.613 1205.74 Q271.254 1204.56 271.254 1202.83 Z" fill="#000000" fill-rule="nonzero" fill-opacity="1"></path><polyline clip-path="url(#clip410)" style="stroke:#3da44d; stroke-linecap:round; stroke-linejoin:round; stroke-width:8; stroke-opacity:1; fill:none" points="192.401,1231.11 259.99,1231.11 "></polyline>
<path clip-path="url(#clip410)" d="M271.254 1247.68 Q271.254 1247.33 271.724 1246.76 L285.829 1227.69 L280.073 1227.69 Q276.072 1227.69 274.762 1229.18 Q273.478 1230.63 273.231 1234.73 L271.971 1234.73 L272.539 1226.58 L288.72 1226.58 Q289.288 1226.58 289.51 1226.61 Q289.732 1226.63 289.881 1226.8 Q290.029 1226.95 290.029 1227.25 Q290.029 1227.54 289.584 1228.11 L275.503 1247.13 L281.482 1247.13 Q285.681 1247.13 287.089 1245.38 Q288.522 1243.63 288.868 1238.93 L290.128 1238.93 L289.263 1248.39 L272.588 1248.39 Q271.773 1248.39 271.501 1248.3 Q271.254 1248.17 271.254 1247.68 Z" fill="#000000" fill-rule="nonzero" fill-opacity="1"></path><polyline clip-path="url(#clip410)" style="stroke:#c271d2; stroke-linecap:round; stroke-linejoin:round; stroke-width:8; stroke-opacity:1; fill:none" points="192.401,1282.95 259.99,1282.95 "></polyline>
<path clip-path="url(#clip410)" d="M271.254 1289.36 Q271.254 1284.55 274.614 1281.21 Q277.974 1277.88 282.519 1277.88 Q286.373 1277.88 288.893 1281.02 L288.893 1270.07 Q288.893 1268.19 288.226 1267.72 Q287.583 1267.26 284.965 1267.26 L284.965 1265.67 L292.252 1265.13 L292.252 1295.84 Q292.252 1297.71 292.895 1298.21 Q293.562 1298.68 296.18 1298.68 L296.18 1300.23 L288.744 1300.8 L288.744 1297.44 Q286.126 1300.78 281.976 1300.8 Q277.628 1300.8 274.441 1297.47 Q271.254 1294.13 271.254 1289.36 M275.454 1289.41 Q275.454 1294.11 276.911 1296.43 Q278.937 1299.67 282.223 1299.67 Q285.978 1299.67 288.201 1296.13 Q288.769 1295.27 288.744 1294.26 L288.744 1283.88 Q288.744 1282.87 288.201 1282.03 Q286.126 1278.99 282.741 1278.99 Q279.209 1278.99 277.01 1282.23 Q275.454 1284.65 275.454 1289.41 Z" fill="#000000" fill-rule="nonzero" fill-opacity="1"></path><path clip-path="url(#clip410)" d="M298.206 1300.23 L298.206 1298.68 Q302.158 1298.68 304.678 1295.64 Q304.678 1295.64 309.421 1289.61 L304.406 1283.09 Q302.628 1280.82 301.837 1280.42 Q301.071 1280 298.453 1280 L298.453 1278.42 Q300.528 1278.57 303.245 1278.57 Q304.752 1278.57 308.729 1278.42 L308.729 1280 Q306.951 1280.1 306.951 1281.26 Q306.951 1281.66 307.395 1282.18 L311.348 1287.29 L314.485 1283.34 Q315.251 1282.42 315.251 1281.56 Q315.251 1280.15 313.769 1280 L313.769 1278.42 Q315.745 1278.57 318.635 1278.57 Q320.809 1278.57 322.786 1278.42 L322.786 1280 Q318.932 1280.1 316.758 1282.62 Q315.795 1283.68 312.114 1288.35 L318.882 1297.1 Q319.698 1298.16 320.612 1298.43 Q321.526 1298.68 323.7 1298.68 L323.7 1300.23 Q321.427 1300.09 318.833 1300.09 Q317.919 1300.09 313.374 1300.23 L313.374 1298.68 Q314.288 1298.63 314.732 1298.23 Q315.202 1297.81 315.202 1297.39 Q315.202 1297.2 314.139 1295.74 L310.286 1290.67 Q306.432 1295.22 305.938 1296.28 Q305.74 1296.73 305.74 1297.1 Q305.74 1298.46 307.198 1298.68 L307.198 1300.23 Q303.566 1300.09 302.405 1300.09 Q300.182 1300.09 298.206 1300.23 Z" fill="#000000" fill-rule="nonzero" fill-opacity="1"></path><polyline clip-path="url(#clip410)" style="stroke:#ac8d18; stroke-linecap:round; stroke-linejoin:round; stroke-width:8; stroke-opacity:1; fill:none" points="192.401,1334.79 259.99,1334.79 "></polyline>
<path clip-path="url(#clip410)" d="M271.254 1341.2 Q271.254 1336.39 274.614 1333.05 Q277.974 1329.72 282.519 1329.72 Q286.373 1329.72 288.893 1332.86 L288.893 1321.91 Q288.893 1320.03 288.226 1319.56 Q287.583 1319.1 284.965 1319.1 L284.965 1317.51 L292.252 1316.97 L292.252 1347.68 Q292.252 1349.55 292.895 1350.05 Q293.562 1350.52 296.18 1350.52 L296.18 1352.07 L288.744 1352.64 L288.744 1349.28 Q286.126 1352.62 281.976 1352.64 Q277.628 1352.64 274.441 1349.31 Q271.254 1345.97 271.254 1341.2 M275.454 1341.25 Q275.454 1345.95 276.911 1348.27 Q278.937 1351.51 282.223 1351.51 Q285.978 1351.51 288.201 1347.97 Q288.769 1347.11 288.744 1346.1 L288.744 1335.72 Q288.744 1334.71 288.201 1333.87 Q286.126 1330.83 282.741 1330.83 Q279.209 1330.83 277.01 1334.07 Q275.454 1336.49 275.454 1341.25 Z" fill="#000000" fill-rule="nonzero" fill-opacity="1"></path><path clip-path="url(#clip410)" d="M298.552 1358.35 Q298.552 1357.29 299.169 1356.72 Q299.811 1356.18 300.676 1356.18 Q301.59 1356.18 302.183 1356.74 Q302.801 1357.34 302.801 1358.3 Q302.801 1360.18 300.824 1360.42 Q301.788 1361.34 303.196 1361.34 Q304.703 1361.34 305.913 1360.23 Q307.148 1359.11 307.667 1358.05 Q308.211 1356.99 308.976 1355.06 Q309.693 1353.56 310.236 1352.07 L302.652 1333.6 Q302.158 1332.39 301.392 1332.11 Q300.627 1331.84 298.552 1331.84 L298.552 1330.26 Q300.824 1330.41 303.468 1330.41 Q305.024 1330.41 308.976 1330.26 L308.976 1331.84 Q306.136 1331.84 306.136 1333.15 Q306.136 1333.3 306.432 1334.07 L312.064 1347.68 L317.178 1335.23 Q317.474 1334.51 317.474 1334.02 Q317.474 1331.94 315.103 1331.84 L315.103 1330.26 Q318.438 1330.41 319.5 1330.41 Q321.575 1330.41 323.28 1330.26 L323.28 1331.84 Q319.895 1331.84 318.586 1335.08 L309.668 1356.67 Q307.247 1362.43 303.196 1362.45 Q301.269 1362.45 299.91 1361.26 Q298.552 1360.08 298.552 1358.35 Z" fill="#000000" fill-rule="nonzero" fill-opacity="1"></path><polyline clip-path="url(#clip410)" style="stroke:#00a9ad; stroke-linecap:round; stroke-linejoin:round; stroke-width:8; stroke-opacity:1; fill:none" points="192.401,1386.63 259.99,1386.63 "></polyline>
<path clip-path="url(#clip410)" d="M271.254 1393.04 Q271.254 1388.23 274.614 1384.89 Q277.974 1381.56 282.519 1381.56 Q286.373 1381.56 288.893 1384.7 L288.893 1373.75 Q288.893 1371.87 288.226 1371.4 Q287.583 1370.94 284.965 1370.94 L284.965 1369.35 L292.252 1368.81 L292.252 1399.52 Q292.252 1401.39 292.895 1401.89 Q293.562 1402.36 296.18 1402.36 L296.18 1403.91 L288.744 1404.48 L288.744 1401.12 Q286.126 1404.46 281.976 1404.48 Q277.628 1404.48 274.441 1401.15 Q271.254 1397.81 271.254 1393.04 M275.454 1393.09 Q275.454 1397.79 276.911 1400.11 Q278.937 1403.35 282.223 1403.35 Q285.978 1403.35 288.201 1399.81 Q288.769 1398.95 288.744 1397.94 L288.744 1387.56 Q288.744 1386.55 288.201 1385.71 Q286.126 1382.67 282.741 1382.67 Q279.209 1382.67 277.01 1385.91 Q275.454 1388.33 275.454 1393.09 Z" fill="#000000" fill-rule="nonzero" fill-opacity="1"></path><path clip-path="url(#clip410)" d="M298.996 1403.2 Q298.996 1402.85 299.466 1402.28 L313.571 1383.21 L307.815 1383.21 Q303.813 1383.21 302.504 1384.7 Q301.22 1386.15 300.973 1390.25 L299.713 1390.25 L300.281 1382.1 L316.462 1382.1 Q317.03 1382.1 317.252 1382.13 Q317.474 1382.15 317.623 1382.32 Q317.771 1382.47 317.771 1382.77 Q317.771 1383.06 317.326 1383.63 L303.245 1402.65 L309.223 1402.65 Q313.423 1402.65 314.831 1400.9 Q316.264 1399.15 316.61 1394.45 L317.87 1394.45 L317.005 1403.91 L300.33 1403.91 Q299.515 1403.91 299.243 1403.82 Q298.996 1403.69 298.996 1403.2 Z" fill="#000000" fill-rule="nonzero" fill-opacity="1"></path><path clip-path="url(#clip410)" d="M1338.93 1486.45 L2352.76 1486.45 L2352.76 47.2441 L1338.93 47.2441  Z" fill="#ffffff" fill-rule="evenodd" fill-opacity="1"></path>
<defs>
  <clipPath id="clip413">
    <rect x="1338" y="47" width="1015" height="1440"></rect>
  </clipPath>
</defs>
<polyline clip-path="url(#clip410)" style="stroke:#000000; stroke-linecap:round; stroke-linejoin:round; stroke-width:4; stroke-opacity:1; fill:none" points="1338.93,1486.45 2352.76,1486.45 "></polyline>
<polyline clip-path="url(#clip410)" style="stroke:#000000; stroke-linecap:round; stroke-linejoin:round; stroke-width:4; stroke-opacity:1; fill:none" points="1338.93,47.2441 2352.76,47.2441 "></polyline>
<polyline clip-path="url(#clip410)" style="stroke:#000000; stroke-linecap:round; stroke-linejoin:round; stroke-width:4; stroke-opacity:1; fill:none" points="1367.62,1486.45 1367.62,1467.55 "></polyline>
<polyline clip-path="url(#clip410)" style="stroke:#000000; stroke-linecap:round; stroke-linejoin:round; stroke-width:4; stroke-opacity:1; fill:none" points="1566.88,1486.45 1566.88,1467.55 "></polyline>
<polyline clip-path="url(#clip410)" style="stroke:#000000; stroke-linecap:round; stroke-linejoin:round; stroke-width:4; stroke-opacity:1; fill:none" points="1766.14,1486.45 1766.14,1467.55 "></polyline>
<polyline clip-path="url(#clip410)" style="stroke:#000000; stroke-linecap:round; stroke-linejoin:round; stroke-width:4; stroke-opacity:1; fill:none" points="1965.4,1486.45 1965.4,1467.55 "></polyline>
<polyline clip-path="url(#clip410)" style="stroke:#000000; stroke-linecap:round; stroke-linejoin:round; stroke-width:4; stroke-opacity:1; fill:none" points="2164.66,1486.45 2164.66,1467.55 "></polyline>
<path clip-path="url(#clip410)" d="M1356.98 1532.67 Q1356.98 1525.23 1358.85 1521.18 Q1361.47 1515.15 1367.65 1515.15 Q1368.96 1515.15 1370.32 1515.52 Q1371.7 1515.87 1373.43 1517.23 Q1375.18 1518.59 1376.25 1520.81 Q1378.27 1525.11 1378.27 1532.67 Q1378.27 1540.05 1376.39 1544.08 Q1373.65 1549.96 1367.6 1549.96 Q1365.33 1549.96 1363 1548.8 Q1360.71 1547.64 1359.25 1544.85 Q1356.98 1540.67 1356.98 1532.67 M1361.18 1532.05 Q1361.18 1539.68 1361.72 1542.72 Q1362.34 1546.01 1364.02 1547.44 Q1365.72 1548.85 1367.6 1548.85 Q1369.63 1548.85 1371.3 1547.34 Q1373.01 1545.81 1373.53 1542.52 Q1374.1 1539.29 1374.07 1532.05 Q1374.07 1525.01 1373.58 1522.19 Q1372.91 1518.91 1371.13 1517.6 Q1369.38 1516.26 1367.6 1516.26 Q1366.93 1516.26 1366.22 1516.46 Q1365.52 1516.66 1364.51 1517.23 Q1363.5 1517.8 1362.71 1519.2 Q1361.94 1520.61 1361.57 1522.74 Q1361.18 1525.48 1361.18 1532.05 Z" fill="#000000" fill-rule="nonzero" fill-opacity="1"></path><path clip-path="url(#clip410)" d="M1558.53 1519.97 L1558.53 1518.39 Q1564.61 1518.39 1567.75 1515.15 Q1568.61 1515.15 1568.76 1515.35 Q1568.91 1515.55 1568.91 1516.46 L1568.91 1544.85 Q1568.91 1546.35 1569.65 1546.82 Q1570.39 1547.29 1573.63 1547.29 L1575.23 1547.29 L1575.23 1548.85 Q1573.45 1548.7 1567.03 1548.7 Q1560.61 1548.7 1558.85 1548.85 L1558.85 1547.29 L1560.46 1547.29 Q1563.65 1547.29 1564.41 1546.85 Q1565.18 1546.38 1565.18 1544.85 L1565.18 1518.64 Q1562.53 1519.97 1558.53 1519.97 Z" fill="#000000" fill-rule="nonzero" fill-opacity="1"></path><path clip-path="url(#clip410)" d="M1756.04 1548.85 Q1756.04 1547.93 1756.11 1547.66 Q1756.21 1547.39 1756.6 1546.97 L1766.31 1536.15 Q1771.62 1530.17 1771.62 1524.96 Q1771.62 1521.58 1769.85 1519.15 Q1768.09 1516.73 1764.86 1516.73 Q1762.63 1516.73 1760.75 1518.09 Q1758.88 1519.45 1758.01 1521.87 Q1758.16 1521.82 1758.68 1521.82 Q1759.94 1521.82 1760.63 1522.61 Q1761.35 1523.4 1761.35 1524.47 Q1761.35 1525.82 1760.46 1526.49 Q1759.59 1527.13 1758.73 1527.13 Q1758.38 1527.13 1757.91 1527.06 Q1757.47 1526.99 1756.75 1526.29 Q1756.04 1525.58 1756.04 1524.32 Q1756.04 1520.78 1758.7 1517.97 Q1761.4 1515.15 1765.5 1515.15 Q1770.14 1515.15 1773.18 1517.92 Q1776.24 1520.66 1776.24 1524.96 Q1776.24 1526.47 1775.77 1527.85 Q1775.33 1529.21 1774.71 1530.27 Q1774.12 1531.33 1772.49 1533.04 Q1770.86 1534.74 1769.55 1535.95 Q1768.24 1537.16 1765.3 1539.73 L1759.94 1544.94 L1769.06 1544.94 Q1773.5 1544.94 1773.85 1544.55 Q1774.34 1543.83 1774.96 1540.05 L1776.24 1540.05 L1774.81 1548.85 L1756.04 1548.85 Z" fill="#000000" fill-rule="nonzero" fill-opacity="1"></path><path clip-path="url(#clip410)" d="M1954.9 1542.03 Q1954.9 1540.52 1955.76 1539.81 Q1956.63 1539.09 1957.74 1539.09 Q1958.9 1539.09 1959.72 1539.86 Q1960.56 1540.6 1960.56 1541.91 Q1960.56 1543.31 1959.57 1544.1 Q1958.6 1544.9 1957.22 1544.7 Q1958.43 1546.72 1960.66 1547.64 Q1962.9 1548.55 1964.98 1548.55 Q1967.15 1548.55 1968.91 1546.67 Q1970.68 1544.8 1970.68 1540.2 Q1970.68 1536.3 1969.15 1534.05 Q1967.65 1531.8 1964.66 1531.8 L1962.43 1531.8 Q1961.67 1531.8 1961.45 1531.73 Q1961.22 1531.65 1961.22 1531.23 Q1961.22 1530.74 1961.99 1530.64 Q1962.75 1530.64 1963.97 1530.49 Q1966.91 1530.39 1968.46 1527.85 Q1969.87 1525.48 1969.87 1522.09 Q1969.87 1519.01 1968.39 1517.72 Q1966.93 1516.41 1965.03 1516.41 Q1963.25 1516.41 1961.3 1517.15 Q1959.35 1517.89 1958.28 1519.55 Q1961.42 1519.55 1961.42 1522.09 Q1961.42 1523.21 1960.7 1523.95 Q1960.01 1524.66 1958.85 1524.66 Q1957.74 1524.66 1957 1523.97 Q1956.26 1523.26 1956.26 1522.04 Q1956.26 1519.15 1958.83 1517.15 Q1961.42 1515.15 1965.23 1515.15 Q1968.98 1515.15 1971.75 1517.13 Q1974.54 1519.11 1974.54 1522.14 Q1974.54 1525.13 1972.56 1527.58 Q1970.59 1530.02 1967.45 1531.04 Q1971.3 1531.8 1973.6 1534.42 Q1975.9 1537.01 1975.9 1540.2 Q1975.9 1544.15 1972.78 1547.07 Q1969.67 1549.96 1965.13 1549.96 Q1960.93 1549.96 1957.91 1547.69 Q1954.9 1545.41 1954.9 1542.03 Z" fill="#000000" fill-rule="nonzero" fill-opacity="1"></path><path clip-path="url(#clip410)" d="M2153.44 1540.5 L2153.44 1538.94 L2168.98 1515.2 Q2169.37 1514.58 2169.99 1514.61 Q2170.56 1514.61 2170.68 1514.83 Q2170.81 1515.05 2170.81 1515.92 L2170.81 1538.94 L2175.87 1538.94 L2175.87 1540.5 L2170.81 1540.5 L2170.81 1544.9 Q2170.81 1546.35 2171.4 1546.82 Q2172.02 1547.29 2174.64 1547.29 L2175.7 1547.29 L2175.7 1548.85 Q2173.62 1548.7 2168.83 1548.7 Q2164.06 1548.7 2161.99 1548.85 L2161.99 1547.29 L2163.05 1547.29 Q2165.67 1547.29 2166.29 1546.85 Q2166.9 1546.38 2166.9 1544.9 L2166.9 1540.5 L2153.44 1540.5 M2154.87 1538.94 L2167.2 1538.94 L2167.2 1520.07 L2154.87 1538.94 Z" fill="#000000" fill-rule="nonzero" fill-opacity="1"></path><polyline clip-path="url(#clip410)" style="stroke:#000000; stroke-linecap:round; stroke-linejoin:round; stroke-width:4; stroke-opacity:1; fill:none" points="1338.93,1486.45 1338.93,47.2441 "></polyline>
<polyline clip-path="url(#clip410)" style="stroke:#000000; stroke-linecap:round; stroke-linejoin:round; stroke-width:4; stroke-opacity:1; fill:none" points="2352.76,1486.45 2352.76,47.2441 "></polyline>
<polyline clip-path="url(#clip410)" style="stroke:#000000; stroke-linecap:round; stroke-linejoin:round; stroke-width:4; stroke-opacity:1; fill:none" points="1338.93,1351.61 1357.83,1351.61 "></polyline>
<polyline clip-path="url(#clip410)" style="stroke:#000000; stroke-linecap:round; stroke-linejoin:round; stroke-width:4; stroke-opacity:1; fill:none" points="1338.93,1086.95 1357.83,1086.95 "></polyline>
<polyline clip-path="url(#clip410)" style="stroke:#000000; stroke-linecap:round; stroke-linejoin:round; stroke-width:4; stroke-opacity:1; fill:none" points="1338.93,822.29 1357.83,822.29 "></polyline>
<polyline clip-path="url(#clip410)" style="stroke:#000000; stroke-linecap:round; stroke-linejoin:round; stroke-width:4; stroke-opacity:1; fill:none" points="1338.93,557.631 1357.83,557.631 "></polyline>
<polyline clip-path="url(#clip410)" style="stroke:#000000; stroke-linecap:round; stroke-linejoin:round; stroke-width:4; stroke-opacity:1; fill:none" points="1338.93,292.971 1357.83,292.971 "></polyline>
<path clip-path="url(#clip410)" d="M1281.64 1352.71 Q1281.64 1345.27 1283.51 1341.22 Q1286.13 1335.19 1292.31 1335.19 Q1293.62 1335.19 1294.98 1335.56 Q1296.36 1335.91 1298.09 1337.27 Q1299.84 1338.63 1300.91 1340.85 Q1302.93 1345.15 1302.93 1352.71 Q1302.93 1360.09 1301.05 1364.12 Q1298.31 1370 1292.26 1370 Q1289.99 1370 1287.66 1368.84 Q1285.37 1367.68 1283.91 1364.89 Q1281.64 1360.71 1281.64 1352.71 M1285.84 1352.09 Q1285.84 1359.72 1286.38 1362.76 Q1287 1366.05 1288.68 1367.48 Q1290.38 1368.89 1292.26 1368.89 Q1294.28 1368.89 1295.96 1367.38 Q1297.67 1365.85 1298.19 1362.56 Q1298.76 1359.33 1298.73 1352.09 Q1298.73 1345.05 1298.24 1342.23 Q1297.57 1338.95 1295.79 1337.64 Q1294.04 1336.3 1292.26 1336.3 Q1291.59 1336.3 1290.88 1336.5 Q1290.18 1336.7 1289.17 1337.27 Q1288.16 1337.84 1287.37 1339.24 Q1286.6 1340.65 1286.23 1342.78 Q1285.84 1345.52 1285.84 1352.09 Z" fill="#000000" fill-rule="nonzero" fill-opacity="1"></path><path clip-path="url(#clip410)" d="M1281.93 1097.41 Q1281.93 1095.9 1282.8 1095.19 Q1283.66 1094.47 1284.77 1094.47 Q1285.94 1094.47 1286.75 1095.24 Q1287.59 1095.98 1287.59 1097.29 Q1287.59 1098.7 1286.6 1099.49 Q1285.64 1100.28 1284.26 1100.08 Q1285.47 1102.1 1287.69 1103.02 Q1289.94 1103.93 1292.01 1103.93 Q1294.19 1103.93 1295.94 1102.06 Q1297.72 1100.18 1297.72 1095.58 Q1297.72 1091.68 1296.19 1089.43 Q1294.68 1087.18 1291.69 1087.18 L1289.47 1087.18 Q1288.7 1087.18 1288.48 1087.11 Q1288.26 1087.04 1288.26 1086.62 Q1288.26 1086.12 1289.02 1086.02 Q1289.79 1086.02 1291 1085.87 Q1293.94 1085.78 1295.5 1083.23 Q1296.9 1080.86 1296.9 1077.48 Q1296.9 1074.39 1295.42 1073.1 Q1293.96 1071.79 1292.06 1071.79 Q1290.28 1071.79 1288.33 1072.53 Q1286.38 1073.28 1285.32 1074.93 Q1288.45 1074.93 1288.45 1077.48 Q1288.45 1078.59 1287.74 1079.33 Q1287.05 1080.04 1285.89 1080.04 Q1284.77 1080.04 1284.03 1079.35 Q1283.29 1078.64 1283.29 1077.43 Q1283.29 1074.54 1285.86 1072.53 Q1288.45 1070.53 1292.26 1070.53 Q1296.01 1070.53 1298.78 1072.51 Q1301.57 1074.49 1301.57 1077.52 Q1301.57 1080.51 1299.6 1082.96 Q1297.62 1085.41 1294.48 1086.42 Q1298.34 1087.18 1300.63 1089.8 Q1302.93 1092.4 1302.93 1095.58 Q1302.93 1099.54 1299.82 1102.45 Q1296.71 1105.34 1292.16 1105.34 Q1287.96 1105.34 1284.95 1103.07 Q1281.93 1100.8 1281.93 1097.41 Z" fill="#000000" fill-rule="nonzero" fill-opacity="1"></path><path clip-path="url(#clip410)" d="M1281.93 823.587 Q1281.93 815.632 1285.98 810.766 Q1290.04 805.875 1295.25 805.875 Q1298.29 805.875 1299.97 807.431 Q1301.67 808.963 1301.67 811.334 Q1301.67 812.643 1300.91 813.211 Q1300.14 813.78 1299.35 813.78 Q1298.43 813.78 1297.72 813.162 Q1297 812.544 1297 811.433 Q1297 809.16 1299.79 809.16 Q1298.48 807.134 1295.35 807.134 Q1294.38 807.134 1293.4 807.431 Q1292.41 807.703 1291.12 808.641 Q1289.84 809.58 1288.85 811.062 Q1287.86 812.544 1287.17 815.336 Q1286.48 818.127 1286.48 821.759 L1286.48 822.969 Q1288.55 817.955 1292.8 817.979 Q1297.05 817.979 1299.99 821.215 Q1302.93 824.452 1302.93 829.244 Q1302.93 834.16 1299.87 837.421 Q1296.8 840.682 1292.51 840.682 Q1290.58 840.682 1288.83 839.866 Q1287.1 839.076 1285.47 837.248 Q1283.86 835.42 1282.9 831.912 Q1281.93 828.404 1281.93 823.587 M1286.58 828.132 Q1286.58 833.098 1287.49 835.469 Q1287.64 835.864 1287.96 836.408 Q1288.31 836.951 1288.87 837.668 Q1289.47 838.359 1290.43 838.829 Q1291.39 839.274 1292.51 839.274 Q1295.89 839.274 1297.52 835.988 Q1298.39 834.16 1298.39 829.195 Q1298.39 824.13 1297.47 822.278 Q1295.92 819.14 1292.75 819.14 Q1290.63 819.14 1289.15 820.598 Q1287.69 822.055 1287.12 824.007 Q1286.58 825.958 1286.58 828.132 Z" fill="#000000" fill-rule="nonzero" fill-opacity="1"></path><path clip-path="url(#clip410)" d="M1281.93 552.604 Q1281.93 549.911 1282.72 548.083 Q1283.51 546.23 1285.17 544.402 Q1288.21 541.215 1292.6 541.215 Q1294.48 541.215 1296.14 542.006 Q1297.82 542.796 1299.4 544.6 Q1301 546.378 1301.97 549.911 Q1302.93 553.419 1302.93 558.261 Q1302.93 566.092 1299.13 571.057 Q1295.35 576.022 1290.23 576.022 Q1287 576.022 1285.1 574.565 Q1283.19 573.083 1283.19 570.563 Q1283.19 569.254 1283.93 568.71 Q1284.68 568.142 1285.52 568.142 Q1286.43 568.142 1287.15 568.76 Q1287.86 569.352 1287.86 570.464 Q1287.86 571.378 1287.27 572.094 Q1286.7 572.786 1285.22 572.786 Q1286.68 574.614 1290.18 574.614 Q1291.44 574.614 1292.7 574.046 Q1293.96 573.453 1295.32 572.045 Q1296.71 570.612 1297.55 567.623 Q1298.39 564.634 1298.39 560.434 L1298.39 558.829 Q1296.36 563.893 1292.06 563.893 Q1287.81 563.893 1284.87 560.632 Q1281.93 557.371 1281.93 552.604 M1286.48 552.653 Q1286.48 557.668 1287.39 559.52 Q1288.95 562.707 1292.11 562.707 Q1295.2 562.707 1296.73 559.965 Q1298.29 557.198 1298.29 553.616 Q1298.29 548.651 1297.47 546.477 Q1295.96 542.475 1292.6 542.475 Q1289.27 542.475 1287.54 545.662 Q1286.48 547.539 1286.48 552.653 Z" fill="#000000" fill-rule="nonzero" fill-opacity="1"></path><path clip-path="url(#clip410)" d="M1259.4 281.373 L1259.4 279.792 Q1265.48 279.792 1268.62 276.556 Q1269.48 276.556 1269.63 276.754 Q1269.78 276.951 1269.78 277.865 L1269.78 306.249 Q1269.78 307.756 1270.52 308.226 Q1271.26 308.695 1274.5 308.695 L1276.1 308.695 L1276.1 310.251 Q1274.32 310.103 1267.9 310.103 Q1261.48 310.103 1259.72 310.251 L1259.72 308.695 L1261.33 308.695 Q1264.52 308.695 1265.28 308.25 Q1266.05 307.781 1266.05 306.249 L1266.05 280.039 Q1263.41 281.373 1259.4 281.373 Z" fill="#000000" fill-rule="nonzero" fill-opacity="1"></path><path clip-path="url(#clip410)" d="M1282.72 310.251 Q1282.72 309.337 1282.8 309.066 Q1282.9 308.794 1283.29 308.374 L1293 297.554 Q1298.31 291.576 1298.31 286.363 Q1298.31 282.979 1296.53 280.558 Q1294.78 278.137 1291.54 278.137 Q1289.32 278.137 1287.44 279.496 Q1285.56 280.854 1284.7 283.275 Q1284.85 283.226 1285.37 283.226 Q1286.63 283.226 1287.32 284.016 Q1288.03 284.807 1288.03 285.869 Q1288.03 287.228 1287.15 287.895 Q1286.28 288.537 1285.42 288.537 Q1285.07 288.537 1284.6 288.463 Q1284.16 288.389 1283.44 287.697 Q1282.72 286.981 1282.72 285.721 Q1282.72 282.188 1285.39 279.372 Q1288.08 276.556 1292.18 276.556 Q1296.83 276.556 1299.87 279.323 Q1302.93 282.065 1302.93 286.363 Q1302.93 287.87 1302.46 289.254 Q1302.02 290.612 1301.4 291.674 Q1300.81 292.737 1299.18 294.441 Q1297.55 296.146 1296.24 297.356 Q1294.93 298.567 1291.99 301.136 L1286.63 306.348 L1295.74 306.348 Q1300.19 306.348 1300.53 305.953 Q1301.03 305.237 1301.65 301.457 L1302.93 301.457 L1301.5 310.251 L1282.72 310.251 Z" fill="#000000" fill-rule="nonzero" fill-opacity="1"></path><polyline clip-path="url(#clip413)" style="stroke:#009af9; stroke-linecap:round; stroke-linejoin:round; stroke-width:8; stroke-opacity:1; fill:none" points="1367.62,1351.47 1387.55,1351.81 1407.48,1351.61 1427.4,1351.58 1447.33,1351.59 1467.25,1351.6 1487.18,1351.6 1507.1,1351.6 1527.03,1351.61 1546.96,1351.61 1566.88,1351.61 1586.81,1351.61 1606.73,1351.61 1626.66,1351.61 1646.59,1351.61 1666.51,1351.61 1686.44,1351.61 1706.36,1351.61 1726.29,1351.61 1746.21,1351.61 1766.14,1351.61 1786.07,1351.61 1805.99,1351.61 1825.92,1351.61 1845.84,1351.61 1865.77,1351.61 1885.7,1351.61 1905.62,1351.61 1925.55,1351.61 1945.47,1351.61 1965.4,1351.61 1985.32,1351.61 2005.25,1351.61 2025.18,1351.61 2045.1,1351.61 2065.03,1351.61 2084.95,1351.61 2104.88,1351.61 2124.8,1351.61 2144.73,1351.61 2164.66,1351.61 2184.58,1351.61 2204.51,1351.61 2224.43,1351.61 2244.36,1351.61 2264.29,1351.6 2284.21,1351.59 2304.14,1351.57 2324.06,1351.56 "></polyline>
<polyline clip-path="url(#clip413)" style="stroke:#e26f46; stroke-linecap:round; stroke-linejoin:round; stroke-width:8; stroke-opacity:1; fill:none" points="1367.62,114.57 1387.55,953.228 1407.48,961.812 1427.4,902.464 1447.33,875.656 1467.25,866.949 1487.18,863.599 1507.1,861.161 1527.03,858.714 1546.96,856.263 1566.88,853.921 1586.81,851.752 1606.73,849.776 1626.66,847.99 1646.59,846.382 1666.51,844.94 1686.44,843.651 1706.36,842.502 1726.29,841.479 1746.21,840.57 1766.14,839.764 1786.07,839.051 1805.99,838.42 1825.92,837.864 1845.84,837.373 1865.77,836.943 1885.7,836.567 1905.62,836.241 1925.55,835.958 1945.47,835.715 1965.4,835.511 1985.32,835.344 2005.25,835.213 2025.18,835.113 2045.1,835.039 2065.03,834.992 2084.95,834.971 2104.88,834.969 2124.8,834.976 2144.73,834.976 2164.66,834.942 2184.58,834.822 2204.51,834.509 2224.43,833.765 2244.36,832.133 2264.29,829.354 2284.21,829.744 2304.14,868.362 2324.06,1036.06 "></polyline>
<polyline clip-path="url(#clip413)" style="stroke:#3da44d; stroke-linecap:round; stroke-linejoin:round; stroke-width:8; stroke-opacity:1; fill:none" points="1367.62,298.769 1387.55,852.834 1407.48,895.251 1427.4,875.674 1447.33,866.408 1467.25,864.156 1487.18,863.299 1507.1,862 1527.03,860.124 1546.96,857.931 1566.88,855.654 1586.81,853.433 1606.73,851.337 1626.66,849.403 1646.59,847.639 1666.51,846.047 1686.44,844.617 1706.36,843.34 1726.29,842.203 1746.21,841.195 1766.14,840.301 1786.07,839.509 1805.99,838.809 1825.92,838.19 1845.84,837.643 1865.77,837.16 1885.7,836.736 1905.62,836.364 1925.55,836.037 1945.47,835.753 1965.4,835.51 1985.32,835.306 2005.25,835.14 2025.18,835.01 2045.1,834.916 2065.03,834.867 2084.95,834.873 2104.88,834.952 2124.8,835.138 2144.73,835.49 2164.66,836.115 2184.58,837.199 2204.51,839.059 2224.43,842.23 2244.36,847.641 2264.29,857.286 2284.21,877.53 2304.14,935.406 2324.06,1091.09 "></polyline>
<polyline clip-path="url(#clip413)" style="stroke:#c271d2; stroke-linecap:round; stroke-linejoin:round; stroke-width:8; stroke-opacity:1; fill:none" points="1367.62,1180.59 1387.55,1445.72 1407.48,1413.39 1427.4,1375.23 1447.33,1359.06 1467.25,1353.62 1487.18,1351.81 1507.1,1351.11 1527.03,1350.79 1546.96,1350.63 1566.88,1350.57 1586.81,1350.57 1606.73,1350.6 1626.66,1350.64 1646.59,1350.69 1666.51,1350.74 1686.44,1350.8 1706.36,1350.85 1726.29,1350.91 1746.21,1350.97 1766.14,1351.04 1786.07,1351.1 1805.99,1351.16 1825.92,1351.22 1845.84,1351.28 1865.77,1351.34 1885.7,1351.39 1905.62,1351.44 1925.55,1351.49 1945.47,1351.54 1965.4,1351.59 1985.32,1351.63 2005.25,1351.67 2025.18,1351.7 2045.1,1351.72 2065.03,1351.73 2084.95,1351.7 2104.88,1351.62 2124.8,1351.44 2144.73,1351.09 2164.66,1350.43 2184.58,1349.23 2204.51,1347.05 2224.43,1343.14 2244.36,1336.1 2264.29,1323.67 2284.21,1303.81 2304.14,1284.53 2324.06,1296.54 "></polyline>
<polyline clip-path="url(#clip413)" style="stroke:#ac8d18; stroke-linecap:round; stroke-linejoin:round; stroke-width:8; stroke-opacity:1; fill:none" points="1367.62,270.902 1387.55,867 1407.48,905.423 1427.4,882.285 1447.33,870.153 1467.25,865.786 1487.18,863.471 1507.1,861.24 1527.03,858.844 1546.96,856.432 1566.88,854.143 1586.81,852.043 1606.73,850.146 1626.66,848.442 1646.59,846.91 1666.51,845.53 1686.44,844.285 1706.36,843.159 1726.29,842.139 1746.21,841.215 1766.14,840.378 1786.07,839.621 1805.99,838.938 1825.92,838.323 1845.84,837.771 1865.77,837.278 1885.7,836.84 1905.62,836.453 1925.55,836.112 1945.47,835.815 1965.4,835.56 1985.32,835.346 2005.25,835.171 2025.18,835.035 2045.1,834.937 2065.03,834.884 2084.95,834.887 2104.88,834.964 2124.8,835.149 2144.73,835.5 2164.66,836.124 2184.58,837.208 2204.51,839.068 2224.43,842.239 2244.36,847.65 2264.29,857.295 2284.21,877.539 2304.14,935.413 2324.06,1091.1 "></polyline>
<polyline clip-path="url(#clip413)" style="stroke:#00a9ad; stroke-linecap:round; stroke-linejoin:round; stroke-width:8; stroke-opacity:1; fill:none" points="1367.62,87.9763 1387.55,967.964 1407.48,971.75 1427.4,908.771 1447.33,879.228 1467.25,868.496 1487.18,863.725 1507.1,860.376 1527.03,857.414 1546.96,854.745 1566.88,852.394 1586.81,850.352 1606.73,848.574 1626.66,847.02 1646.59,845.645 1666.51,844.419 1686.44,843.315 1706.36,842.317 1726.29,841.411 1746.21,840.588 1766.14,839.84 1786.07,839.162 1805.99,838.548 1825.92,837.996 1845.84,837.501 1865.77,837.06 1885.7,836.671 1905.62,836.33 1925.55,836.032 1945.47,835.775 1965.4,835.56 1985.32,835.383 2005.25,835.244 2025.18,835.137 2045.1,835.058 2065.03,835.008 2084.95,834.984 2104.88,834.98 2124.8,834.986 2144.73,834.985 2164.66,834.951 2184.58,834.831 2204.51,834.518 2224.43,833.774 2244.36,832.141 2264.29,829.362 2284.21,829.752 2304.14,868.371 2324.06,1036.07 "></polyline>
<path clip-path="url(#clip410)" d="M2167.31 458.098 L2318.96 458.098 L2318.96 95.2176 L2167.31 95.2176  Z" fill="#ffffff" fill-rule="evenodd" fill-opacity="1"></path>
<polyline clip-path="url(#clip410)" style="stroke:#000000; stroke-linecap:round; stroke-linejoin:round; stroke-width:4; stroke-opacity:1; fill:none" points="2167.31,458.098 2318.96,458.098 2318.96,95.2176 2167.31,95.2176 2167.31,458.098 "></polyline>
<polyline clip-path="url(#clip410)" style="stroke:#009af9; stroke-linecap:round; stroke-linejoin:round; stroke-width:8; stroke-opacity:1; fill:none" points="2178.57,147.058 2246.16,147.058 "></polyline>
<path clip-path="url(#clip410)" d="M2257.43 144.106 L2257.43 142.524 L2264.86 141.981 L2264.86 158.779 Q2264.86 159.99 2264.96 160.706 Q2265.06 161.398 2265.45 162.213 Q2265.87 163.028 2266.81 163.399 Q2267.78 163.769 2269.31 163.769 Q2272.05 163.769 2273.73 161.521 Q2275.43 159.273 2275.43 155.938 L2275.43 146.922 Q2275.43 145.044 2274.77 144.575 Q2274.1 144.106 2271.48 144.106 L2271.48 142.524 L2278.92 141.981 L2278.92 159.94 Q2278.92 161.818 2279.56 162.312 Q2280.23 162.781 2282.87 162.781 L2282.87 164.338 L2275.58 164.906 L2275.58 160.336 Q2273.46 164.881 2269.06 164.906 Q2266.84 164.906 2265.31 164.338 Q2263.8 163.769 2263.03 163.078 Q2262.27 162.361 2261.85 161.003 Q2261.45 159.644 2261.4 158.804 Q2261.35 157.964 2261.35 156.334 L2261.35 148.75 Q2261.35 145.316 2260.86 144.723 Q2260.37 144.106 2257.43 144.106 Z" fill="#000000" fill-rule="nonzero" fill-opacity="1"></path><path clip-path="url(#clip410)" d="M2288.35 135.459 L2288.35 133.878 Q2294.43 133.878 2297.57 130.642 Q2298.43 130.642 2298.58 130.84 Q2298.73 131.037 2298.73 131.951 L2298.73 160.336 Q2298.73 161.843 2299.47 162.312 Q2300.21 162.781 2303.45 162.781 L2305.05 162.781 L2305.05 164.338 Q2303.28 164.189 2296.85 164.189 Q2290.43 164.189 2288.68 164.338 L2288.68 162.781 L2290.28 162.781 Q2293.47 162.781 2294.23 162.337 Q2295 161.867 2295 160.336 L2295 134.125 Q2292.36 135.459 2288.35 135.459 Z" fill="#000000" fill-rule="nonzero" fill-opacity="1"></path><polyline clip-path="url(#clip410)" style="stroke:#e26f46; stroke-linecap:round; stroke-linejoin:round; stroke-width:8; stroke-opacity:1; fill:none" points="2178.57,198.898 2246.16,198.898 "></polyline>
<path clip-path="url(#clip410)" d="M2257.43 195.946 L2257.43 194.364 L2264.86 193.821 L2264.86 210.619 Q2264.86 211.83 2264.96 212.546 Q2265.06 213.238 2265.45 214.053 Q2265.87 214.868 2266.81 215.239 Q2267.78 215.609 2269.31 215.609 Q2272.05 215.609 2273.73 213.361 Q2275.43 211.113 2275.43 207.778 L2275.43 198.762 Q2275.43 196.884 2274.77 196.415 Q2274.1 195.946 2271.48 195.946 L2271.48 194.364 L2278.92 193.821 L2278.92 211.78 Q2278.92 213.658 2279.56 214.152 Q2280.23 214.621 2282.87 214.621 L2282.87 216.178 L2275.58 216.746 L2275.58 212.176 Q2273.46 216.721 2269.06 216.746 Q2266.84 216.746 2265.31 216.178 Q2263.8 215.609 2263.03 214.918 Q2262.27 214.201 2261.85 212.843 Q2261.45 211.484 2261.4 210.644 Q2261.35 209.804 2261.35 208.174 L2261.35 200.59 Q2261.35 197.156 2260.86 196.563 Q2260.37 195.946 2257.43 195.946 Z" fill="#000000" fill-rule="nonzero" fill-opacity="1"></path><path clip-path="url(#clip410)" d="M2286.38 216.178 Q2286.38 215.264 2286.45 214.992 Q2286.55 214.72 2286.95 214.3 L2296.65 203.48 Q2301.97 197.502 2301.97 192.289 Q2301.97 188.905 2300.19 186.484 Q2298.43 184.063 2295.2 184.063 Q2292.97 184.063 2291.1 185.422 Q2289.22 186.781 2288.35 189.201 Q2288.5 189.152 2289.02 189.152 Q2290.28 189.152 2290.97 189.943 Q2291.69 190.733 2291.69 191.795 Q2291.69 193.154 2290.8 193.821 Q2289.94 194.463 2289.07 194.463 Q2288.72 194.463 2288.26 194.389 Q2287.81 194.315 2287.09 193.623 Q2286.38 192.907 2286.38 191.647 Q2286.38 188.115 2289.05 185.298 Q2291.74 182.482 2295.84 182.482 Q2300.48 182.482 2303.52 185.249 Q2306.59 187.991 2306.59 192.289 Q2306.59 193.796 2306.12 195.18 Q2305.67 196.538 2305.05 197.601 Q2304.46 198.663 2302.83 200.367 Q2301.2 202.072 2299.89 203.282 Q2298.58 204.493 2295.64 207.062 L2290.28 212.274 L2299.4 212.274 Q2303.84 212.274 2304.19 211.879 Q2304.68 211.163 2305.3 207.383 L2306.59 207.383 L2305.15 216.178 L2286.38 216.178 Z" fill="#000000" fill-rule="nonzero" fill-opacity="1"></path><polyline clip-path="url(#clip410)" style="stroke:#3da44d; stroke-linecap:round; stroke-linejoin:round; stroke-width:8; stroke-opacity:1; fill:none" points="2178.57,250.738 2246.16,250.738 "></polyline>
<path clip-path="url(#clip410)" d="M2257.43 247.786 L2257.43 246.204 L2264.86 245.661 L2264.86 262.459 Q2264.86 263.67 2264.96 264.386 Q2265.06 265.078 2265.45 265.893 Q2265.87 266.708 2266.81 267.079 Q2267.78 267.449 2269.31 267.449 Q2272.05 267.449 2273.73 265.201 Q2275.43 262.953 2275.43 259.618 L2275.43 250.602 Q2275.43 248.724 2274.77 248.255 Q2274.1 247.786 2271.48 247.786 L2271.48 246.204 L2278.92 245.661 L2278.92 263.62 Q2278.92 265.498 2279.56 265.992 Q2280.23 266.461 2282.87 266.461 L2282.87 268.018 L2275.58 268.586 L2275.58 264.016 Q2273.46 268.561 2269.06 268.586 Q2266.84 268.586 2265.31 268.018 Q2263.8 267.449 2263.03 266.758 Q2262.27 266.041 2261.85 264.683 Q2261.45 263.324 2261.4 262.484 Q2261.35 261.644 2261.35 260.014 L2261.35 252.43 Q2261.35 248.996 2260.86 248.403 Q2260.37 247.786 2257.43 247.786 Z" fill="#000000" fill-rule="nonzero" fill-opacity="1"></path><path clip-path="url(#clip410)" d="M2285.98 261.199 Q2285.98 259.693 2286.85 258.976 Q2287.71 258.26 2288.82 258.26 Q2289.98 258.26 2290.8 259.026 Q2291.64 259.767 2291.64 261.076 Q2291.64 262.484 2290.65 263.275 Q2289.69 264.065 2288.3 263.867 Q2289.52 265.893 2291.74 266.807 Q2293.99 267.721 2296.06 267.721 Q2298.24 267.721 2299.99 265.844 Q2301.77 263.966 2301.77 259.371 Q2301.77 255.468 2300.24 253.22 Q2298.73 250.972 2295.74 250.972 L2293.52 250.972 Q2292.75 250.972 2292.53 250.898 Q2292.31 250.824 2292.31 250.404 Q2292.31 249.91 2293.07 249.811 Q2293.84 249.811 2295.05 249.663 Q2297.99 249.564 2299.54 247.02 Q2300.95 244.648 2300.95 241.264 Q2300.95 238.176 2299.47 236.891 Q2298.01 235.582 2296.11 235.582 Q2294.33 235.582 2292.38 236.323 Q2290.43 237.064 2289.37 238.719 Q2292.5 238.719 2292.5 241.264 Q2292.5 242.375 2291.79 243.117 Q2291.1 243.833 2289.94 243.833 Q2288.82 243.833 2288.08 243.141 Q2287.34 242.425 2287.34 241.214 Q2287.34 238.324 2289.91 236.323 Q2292.5 234.322 2296.31 234.322 Q2300.06 234.322 2302.83 236.298 Q2305.62 238.275 2305.62 241.313 Q2305.62 244.302 2303.65 246.748 Q2301.67 249.194 2298.53 250.206 Q2302.39 250.972 2304.68 253.591 Q2306.98 256.185 2306.98 259.371 Q2306.98 263.324 2303.87 266.239 Q2300.76 269.129 2296.21 269.129 Q2292.01 269.129 2289 266.856 Q2285.98 264.584 2285.98 261.199 Z" fill="#000000" fill-rule="nonzero" fill-opacity="1"></path><polyline clip-path="url(#clip410)" style="stroke:#c271d2; stroke-linecap:round; stroke-linejoin:round; stroke-width:8; stroke-opacity:1; fill:none" points="2178.57,302.578 2246.16,302.578 "></polyline>
<path clip-path="url(#clip410)" d="M2257.43 299.626 L2257.43 298.044 L2264.86 297.501 L2264.86 314.299 Q2264.86 315.51 2264.96 316.226 Q2265.06 316.918 2265.45 317.733 Q2265.87 318.548 2266.81 318.919 Q2267.78 319.289 2269.31 319.289 Q2272.05 319.289 2273.73 317.041 Q2275.43 314.793 2275.43 311.458 L2275.43 302.442 Q2275.43 300.564 2274.77 300.095 Q2274.1 299.626 2271.48 299.626 L2271.48 298.044 L2278.92 297.501 L2278.92 315.46 Q2278.92 317.338 2279.56 317.832 Q2280.23 318.301 2282.87 318.301 L2282.87 319.858 L2275.58 320.426 L2275.58 315.856 Q2273.46 320.401 2269.06 320.426 Q2266.84 320.426 2265.31 319.858 Q2263.8 319.289 2263.03 318.598 Q2262.27 317.881 2261.85 316.523 Q2261.45 315.164 2261.4 314.324 Q2261.35 313.484 2261.35 311.854 L2261.35 304.27 Q2261.35 300.836 2260.86 300.243 Q2260.37 299.626 2257.43 299.626 Z" fill="#000000" fill-rule="nonzero" fill-opacity="1"></path><path clip-path="url(#clip410)" d="M2285.27 311.508 L2285.27 309.952 L2300.8 286.212 Q2301.2 285.594 2301.82 285.619 Q2302.39 285.619 2302.51 285.841 Q2302.63 286.063 2302.63 286.928 L2302.63 309.952 L2307.7 309.952 L2307.7 311.508 L2302.63 311.508 L2302.63 315.905 Q2302.63 317.363 2303.23 317.832 Q2303.84 318.301 2306.46 318.301 L2307.52 318.301 L2307.52 319.858 Q2305.45 319.709 2300.66 319.709 Q2295.89 319.709 2293.81 319.858 L2293.81 318.301 L2294.88 318.301 Q2297.49 318.301 2298.11 317.857 Q2298.73 317.387 2298.73 315.905 L2298.73 311.508 L2285.27 311.508 M2286.7 309.952 L2299.03 309.952 L2299.03 291.078 L2286.7 309.952 Z" fill="#000000" fill-rule="nonzero" fill-opacity="1"></path><polyline clip-path="url(#clip410)" style="stroke:#ac8d18; stroke-linecap:round; stroke-linejoin:round; stroke-width:8; stroke-opacity:1; fill:none" points="2178.57,354.418 2246.16,354.418 "></polyline>
<path clip-path="url(#clip410)" d="M2257.43 351.466 L2257.43 349.884 L2264.86 349.341 L2264.86 366.139 Q2264.86 367.35 2264.96 368.066 Q2265.06 368.758 2265.45 369.573 Q2265.87 370.388 2266.81 370.759 Q2267.78 371.129 2269.31 371.129 Q2272.05 371.129 2273.73 368.881 Q2275.43 366.633 2275.43 363.298 L2275.43 354.282 Q2275.43 352.404 2274.77 351.935 Q2274.1 351.466 2271.48 351.466 L2271.48 349.884 L2278.92 349.341 L2278.92 367.3 Q2278.92 369.178 2279.56 369.672 Q2280.23 370.141 2282.87 370.141 L2282.87 371.698 L2275.58 372.266 L2275.58 367.696 Q2273.46 372.241 2269.06 372.266 Q2266.84 372.266 2265.31 371.698 Q2263.8 371.129 2263.03 370.438 Q2262.27 369.721 2261.85 368.363 Q2261.45 367.004 2261.4 366.164 Q2261.35 365.324 2261.35 363.694 L2261.35 356.11 Q2261.35 352.676 2260.86 352.083 Q2260.37 351.466 2257.43 351.466 Z" fill="#000000" fill-rule="nonzero" fill-opacity="1"></path><path clip-path="url(#clip410)" d="M2286.38 363.545 Q2286.38 362.039 2287.19 361.47 Q2288.01 360.877 2288.87 360.877 Q2290.03 360.877 2290.7 361.619 Q2291.39 362.335 2291.39 363.348 Q2291.39 364.361 2290.7 365.102 Q2290.03 365.818 2288.87 365.818 Q2288.3 365.818 2288.01 365.719 Q2288.68 368.041 2290.7 369.721 Q2292.75 371.401 2295.44 371.401 Q2298.83 371.401 2300.85 368.116 Q2302.06 365.991 2302.06 361.174 Q2302.06 356.925 2301.15 354.8 Q2299.74 351.564 2296.85 351.564 Q2292.75 351.564 2290.33 355.097 Q2290.03 355.542 2289.69 355.566 Q2289.19 355.566 2289.07 355.295 Q2288.97 354.998 2288.97 354.232 L2288.97 339.262 Q2288.97 338.052 2289.47 338.052 Q2289.66 338.052 2290.08 338.2 Q2293.27 339.608 2296.8 339.633 Q2300.43 339.633 2303.7 338.15 Q2303.94 338.002 2304.09 338.002 Q2304.58 338.002 2304.61 338.57 Q2304.61 338.768 2304.19 339.361 Q2303.79 339.929 2302.93 340.695 Q2302.06 341.436 2300.95 342.152 Q2299.84 342.869 2298.21 343.363 Q2296.61 343.832 2294.83 343.832 Q2292.7 343.832 2290.53 343.165 L2290.53 353.022 Q2293.15 350.453 2296.95 350.453 Q2301 350.453 2303.79 353.714 Q2306.59 356.974 2306.59 361.52 Q2306.59 366.288 2303.28 369.548 Q2299.99 372.809 2295.54 372.809 Q2291.49 372.809 2288.92 369.919 Q2286.38 367.029 2286.38 363.545 Z" fill="#000000" fill-rule="nonzero" fill-opacity="1"></path><polyline clip-path="url(#clip410)" style="stroke:#00a9ad; stroke-linecap:round; stroke-linejoin:round; stroke-width:8; stroke-opacity:1; fill:none" points="2178.57,406.258 2246.16,406.258 "></polyline>
<path clip-path="url(#clip410)" d="M2257.43 403.306 L2257.43 401.724 L2264.86 401.181 L2264.86 417.979 Q2264.86 419.19 2264.96 419.906 Q2265.06 420.598 2265.45 421.413 Q2265.87 422.228 2266.81 422.599 Q2267.78 422.969 2269.31 422.969 Q2272.05 422.969 2273.73 420.721 Q2275.43 418.473 2275.43 415.138 L2275.43 406.122 Q2275.43 404.244 2274.77 403.775 Q2274.1 403.306 2271.48 403.306 L2271.48 401.724 L2278.92 401.181 L2278.92 419.14 Q2278.92 421.018 2279.56 421.512 Q2280.23 421.981 2282.87 421.981 L2282.87 423.538 L2275.58 424.106 L2275.58 419.536 Q2273.46 424.081 2269.06 424.106 Q2266.84 424.106 2265.31 423.538 Q2263.8 422.969 2263.03 422.278 Q2262.27 421.561 2261.85 420.203 Q2261.45 418.844 2261.4 418.004 Q2261.35 417.164 2261.35 415.534 L2261.35 407.95 Q2261.35 404.516 2260.86 403.923 Q2260.37 403.306 2257.43 403.306 Z" fill="#000000" fill-rule="nonzero" fill-opacity="1"></path><path clip-path="url(#clip410)" d="M2285.98 407.554 Q2285.98 399.6 2290.03 394.733 Q2294.09 389.842 2299.3 389.842 Q2302.34 389.842 2304.02 391.398 Q2305.72 392.93 2305.72 395.302 Q2305.72 396.611 2304.95 397.179 Q2304.19 397.747 2303.4 397.747 Q2302.48 397.747 2301.77 397.13 Q2301.05 396.512 2301.05 395.4 Q2301.05 393.128 2303.84 393.128 Q2302.53 391.102 2299.4 391.102 Q2298.43 391.102 2297.45 391.398 Q2296.46 391.67 2295.17 392.609 Q2293.89 393.548 2292.9 395.03 Q2291.91 396.512 2291.22 399.304 Q2290.53 402.095 2290.53 405.726 L2290.53 406.937 Q2292.6 401.922 2296.85 401.947 Q2301.1 401.947 2304.04 405.183 Q2306.98 408.419 2306.98 413.212 Q2306.98 418.128 2303.92 421.388 Q2300.85 424.649 2296.56 424.649 Q2294.63 424.649 2292.88 423.834 Q2291.15 423.043 2289.52 421.215 Q2287.91 419.387 2286.95 415.88 Q2285.98 412.372 2285.98 407.554 M2290.63 412.1 Q2290.63 417.065 2291.54 419.437 Q2291.69 419.832 2292.01 420.376 Q2292.36 420.919 2292.92 421.635 Q2293.52 422.327 2294.48 422.796 Q2295.44 423.241 2296.56 423.241 Q2299.94 423.241 2301.57 419.956 Q2302.44 418.128 2302.44 413.162 Q2302.44 408.098 2301.52 406.245 Q2299.96 403.108 2296.8 403.108 Q2294.68 403.108 2293.2 404.565 Q2291.74 406.023 2291.17 407.974 Q2290.63 409.926 2290.63 412.1 Z" fill="#000000" fill-rule="nonzero" fill-opacity="1"></path></svg>